# xmcd
#
# Track frame offsets: 
#        150
#        11638
#        35146
#        53293
#        75287
#        91964
#        109629
#        130221
#        152527
#        172142
#        188562
#        209485
#        233704
#        248355
#
# Disc length: 3462 seconds
#
# Revision: 0
# Processed by: cddbd v1.5.2PL0 Copyright (c) Steve Scherf et al.
# Submitted via: ExactAudioCopy v0.95b4
#
DISCID=a10d840e
DTITLE=Lavar - 4 The Luvas
DYEAR=2006
DGENRE=R&B
TTITLE0=Intro W/ Lili
TTITLE1=Dont B Hate-N- ft/stone,Young Ray,Mark 5
TTITLE2=4 The Luvas
TTITLE3=Wanna Luv Ya- Ft/ Chance
TTITLE4=Mountain
TTITLE5=In My Zone-ft/Chino,Seven
TTITLE6=Let's Talk About Love-Ft/ Stone
TTITLE7=Sex Games
TTITLE8=Get Down
TTITLE9=Right There-Ft/ Nikki
TTITLE10=More And More
TTITLE11=Come Over
TTITLE12=Ride
TTITLE13=Outtakes W/ Lili
EXTD=
EXTT0=
EXTT1=
EXTT2=
EXTT3=
EXTT4=
EXTT5=
EXTT6=
EXTT7=
EXTT8=
EXTT9=
EXTT10=
EXTT11=
EXTT12=
EXTT13=
PLAYORDER=
